<?xml version="1.0" encoding="UTF-8"?>
<svg id="Capa_2" data-name="Capa 2" xmlns="http://www.w3.org/2000/svg" viewBox="0 0 37.03 42.94">
  <defs>
    <style>
      .cls-1 {
        fill: #11b30b;
      }
    </style>
  </defs>
  <g id="Capa_1-2" data-name="Capa 1">
    <g id="XtSVTn">
      <g>
        <path class="cls-1" d="M19.07,5.99s-.94.04-1.05.02-.15-.27-.16-.37c-.07-.56-.12-5.29.03-5.52.11-.15,1.19-.2,1.28.07-.04.69.15,5.65-.1,5.8Z"/>
        <g>
          <rect class="cls-1" x="6.9" y="4.59" width="1.25" height="5.92" transform="translate(-3.14 7.54) rotate(-45)"/>
          <rect class="cls-1" x="26.54" y="6.93" width="5.92" height="1.25" transform="translate(3.3 23.07) rotate(-45)"/>
        </g>
        <g>
          <rect class="cls-1" y="17.98" width="5.88" height="1.24"/>
          <rect class="cls-1" x="31.15" y="17.98" width="5.88" height="1.24"/>
        </g>
        <g>
          <path class="cls-1" d="M18.44,8.1c8.15-.07,13.68,8.98,9.67,16.17-.55.99-2.45,2.81-2.32,3.86.03.22.25.56.34.8s0,.53.23.7c.18.13,1.23.16,1.61.24,4.38.96,6.5,6.41,3.98,10.11-2.72,4.01-8.57,3.92-11.19-.13-.53.12-.98.43-1.54.5-2.01.24-4.05-.76-4.87-2.63-.14-.31-.31-1.18-.37-1.28-.04-.07-1.1-.49-1.4-.77-.54-.49-1.04-1.54-1.04-2.27,0-.41.43-1.33.41-1.43-.05-.18-.34-.25-.45-.39-.61-.77-.93-1.71-.63-2.67.14-.47.44-.51.32-1.14-.22-1.14-2.05-2.89-2.66-4.26-3.18-7.19,2.05-15.35,9.9-15.41ZM16.09,27.36v-5.21c0-.13-.69-.56-.88-.56-.24,0-.78.48-1.18.57-2.76.58-4.02-3.09-1.81-4.39,1.61-.96,3.58.17,3.67,2.02.01.21-.13.57-.07.67.15.23,1.26.6,1.5.88v6.04h2.06v-9.59c.24-.09,1.68-.36,1.74-.43.03-.04.02-.42.08-.59,1.08-3.02,5.09-1.99,4.67,1.06-.22,1.6-2.11,2.38-3.49,1.65-.31-.16-.84-.83-.91-.85-.18-.06-.86.1-.86.25v8.51l4.01.1c.3-1.4,1.42-2.33,2.16-3.47,3.33-5.19.34-12.61-5.53-14.24-7.54-2.1-14.21,4.71-11.99,12.2.66,2.24,2.38,3.37,3.11,5.51l3.7-.1ZM24.7,17.34c0-.64-.52-1.16-1.16-1.16s-1.16.52-1.16,1.16.52,1.16,1.16,1.16,1.16-.52,1.16-1.16ZM14.64,19.81c0-.64-.52-1.16-1.16-1.16s-1.16.52-1.16,1.16.52,1.16,1.16,1.16,1.16-.52,1.16-1.16ZM12.97,28.63c-1.71.29-1.08,2.47.91,2.66,2.59.24,5.52-.17,8.14,0,.35-.14.59-.46.91-.64s2.09-.86,2.12-.97c.13-.58-.67-1.02-1.17-1.07-3.37-.38-7.46.26-10.91.03ZM31.8,36.32c0-2.98-2.41-5.39-5.39-5.39s-5.39,2.41-5.39,5.39,2.41,5.39,5.39,5.39,5.39-2.41,5.39-5.39ZM20.94,32.52h-7.58s-.4.3-.44.38c-.56.97.58,2.19,1.58,2.3,1.69.18,3.69-.11,5.41-.11.14-.94.64-1.73,1.04-2.57ZM20.21,38.7l-.5-2.31-4.44.06c.36,2.26,2.98,3.37,4.94,2.26Z"/>
          <path class="cls-1" d="M28.74,34.18c.11-.02.95.72.82.92l-3.82,3.82-2.53-2.53c.23-.17.67-.86.96-.77.11.03,1.21,1.42,1.56,1.54l3.01-2.98Z"/>
        </g>
      </g>
    </g>
  </g>
</svg>
