<?xml version="1.0" encoding="UTF-8"?>
<svg id="Capa_2" data-name="Capa 2" xmlns="http://www.w3.org/2000/svg" viewBox="0 0 32.69 39.69">
  <defs>
    <style>
      .cls-1 {
        fill: #11b30b;
      }
    </style>
  </defs>
  <g id="Capa_1-2" data-name="Capa 1">
    <g id="J6HHdQ">
      <g>
        <path class="cls-1" d="M30.35,36.64h1.94s.24.12.27.18c.13.21.15,2.08.09,2.39s-.37.52-.67.48l-28.77-.02c-.46-.06-.45-.25-.48-.67s-.14-2.37.37-2.37h1.94v-5.62c0-.07.34-.34.47-.37.65-.12,3.25-.08,3.99,0,.26.02.78.15.78.48v5.51c.4-.08,1.38.22,1.47-.26l.05-13.5c.16-.21.37-.29.63-.32.81-.09,2.97-.09,3.79,0,.28.03.54.12.66.39l.19,13.67c.39-.04,1.32.22,1.4-.25l.05-9.3c.07-.1.18-.19.29-.24.37-.16,3.33-.13,3.91-.08.27.02.89.13.89.48v9.4h1.47v-17.91c0-.26.37-.34.58-.37.93-.1,3.07-.1,4,0,.19.02.68.17.68.37v17.91ZM29.3,19.41h-3.05v17.22h3.05v-17.22ZM12.81,23.72v12.92h3.05v-12.92h-3.05ZM22.58,27.92h-3.05v8.72h3.05v-8.72ZM6.09,31.8v4.83h3.05v-4.83h-3.05ZM3.78,37.68v.85h27.84v-.85H3.78Z"/>
        <g>
          <path class="cls-1" d="M15.63.01c4.48-.22,8.9,2.61,10.39,6.88,3.34,9.6-6.96,17.79-15.55,12.54l-6.9,6.86c-2.44,1.57-4.81-1.48-2.83-3.57l6.5-6.52C3.05,9.33,7.54.41,15.63.01ZM25.57,10.54c0-5.21-4.22-9.43-9.43-9.43S6.71,5.33,6.71,10.54s4.22,9.43,9.43,9.43,9.43-4.22,9.43-9.43ZM7.93,17.1l-6.61,6.62c-.84,1.29.64,2.53,1.78,1.57l6.41-6.4c.14-.26-.34-.45-.53-.63-.38-.36-.72-.75-1.05-1.16Z"/>
          <path class="cls-1" d="M24.45,10.53c0,4.59-3.72,8.31-8.31,8.31s-8.31-3.72-8.31-8.31S11.56,2.22,16.15,2.22s8.31,3.72,8.31,8.31ZM23.36,10.53c0-3.98-3.23-7.21-7.21-7.21s-7.21,3.23-7.21,7.21,3.23,7.21,7.21,7.21,7.21-3.23,7.21-7.21Z"/>
          <path class="cls-1" d="M20.66,7.14c1.33-.26,2.26,1.46,1.28,2.44-.65.64-1.37.21-1.62.37-.12.07-1.53,1.49-1.57,1.59-.13.28.04.45.02.67-.18,1.75-2.49,1.74-2.78.41-.08-.35.06-.77-.08-1.08-.02-.05-.67-.71-.73-.74-.17-.1-1.13-.13-1.32-.05-.07.03-1,.95-1.06,1.05-.18.27.17.87-.26,1.52-1.03,1.55-3.44-.05-2.3-1.67.59-.84,1.26-.3,1.84-.68.09-.06.96-.94.99-1.01.25-.56-.25-1.3.69-1.83s1.95-.03,2.15.99c.08.38-.13.65.04.9.06.09.75.75.82.77.15.04.4-.09.6-.09.16,0,.34.13.51.09.11-.03,1.55-1.46,1.59-1.56.14-.31,0-.73.08-1.08.1-.44.68-.92,1.11-1ZM21.24,8.6c0-.18-.15-.33-.33-.33s-.33.15-.33.33.15.33.33.33.33-.15.33-.33ZM14.83,9.34c0-.18-.15-.32-.32-.32s-.32.15-.32.32.15.32.32.32.32-.15.32-.32ZM17.67,12.16c0-.19-.15-.34-.34-.34s-.34.15-.34.34.15.34.34.34.34-.15.34-.34ZM11.69,12.5c0-.18-.14-.32-.32-.32s-.32.14-.32.32.14.32.32.32.32-.14.32-.32Z"/>
        </g>
      </g>
    </g>
  </g>
</svg>
