<?xml version="1.0" encoding="UTF-8"?>
<svg id="Capa_2" data-name="Capa 2" xmlns="http://www.w3.org/2000/svg" viewBox="0 0 35.87 39.43">
  <defs>
    <style>
      .cls-1 {
        fill: #11b30b;
      }
    </style>
  </defs>
  <g id="Capa_1-2" data-name="Capa 1">
    <g id="OyU6z8">
      <g>
        <circle class="cls-1" cx="17.94" cy="28.04" r=".68"/>
        <circle class="cls-1" cx="15.59" cy="28.05" r=".67"/>
        <circle class="cls-1" cx="17.94" cy="30.22" r=".67"/>
        <circle class="cls-1" cx="17.94" cy="25.85" r=".67"/>
        <g>
          <path class="cls-1" d="M35.87,35.49c0,2.18-1.76,3.94-3.94,3.94s-3.94-1.76-3.94-3.94,1.76-3.94,3.94-3.94,3.94,1.76,3.94,3.94ZM34.55,35.49c0-1.45-1.17-2.62-2.62-2.62s-2.62,1.17-2.62,2.62,1.17,2.62,2.62,2.62,2.62-1.17,2.62-2.62Z"/>
          <circle class="cls-1" cx="29.6" cy="28.06" r=".67"/>
          <circle class="cls-1" cx="31.93" cy="30.24" r=".66"/>
          <circle class="cls-1" cx="31.93" cy="28.07" r=".66"/>
        </g>
        <g>
          <path class="cls-1" d="M7.88,35.49c0,2.18-1.76,3.94-3.94,3.94s-3.94-1.76-3.94-3.94,1.76-3.94,3.94-3.94,3.94,1.76,3.94,3.94ZM6.56,35.49c0-1.45-1.17-2.62-2.62-2.62s-2.62,1.17-2.62,2.62,1.17,2.62,2.62,2.62,2.62-1.17,2.62-2.62Z"/>
          <circle class="cls-1" cx="6.28" cy="28.06" r=".67"/>
          <circle class="cls-1" cx="3.96" cy="30.24" r=".66"/>
          <circle class="cls-1" cx="3.95" cy="28.07" r=".66"/>
        </g>
        <g>
          <path class="cls-1" d="M21.88,35.49c0,2.18-1.76,3.94-3.94,3.94s-3.94-1.76-3.94-3.94,1.76-3.94,3.94-3.94,3.94,1.76,3.94,3.94ZM20.56,35.49c0-1.45-1.17-2.62-2.62-2.62s-2.62,1.17-2.62,2.62,1.17,2.62,2.62,2.62,2.62-1.17,2.62-2.62Z"/>
          <circle class="cls-1" cx="24.94" cy="28.06" r=".67"/>
          <circle class="cls-1" cx="20.3" cy="28.05" r=".67"/>
          <circle class="cls-1" cx="10.94" cy="28.06" r=".67"/>
          <circle class="cls-1" cx="22.62" cy="28.05" r=".67"/>
          <circle class="cls-1" cx="8.61" cy="28.06" r=".66"/>
          <circle class="cls-1" cx="13.26" cy="28.05" r=".67"/>
          <circle class="cls-1" cx="27.27" cy="28.06" r=".66"/>
          <g>
            <path class="cls-1" d="M30.2,12.26c0,6.77-5.49,12.26-12.26,12.26s-12.26-5.49-12.26-12.26S11.16,0,17.93,0s12.26,5.49,12.26,12.26ZM28.87,12.27c0-6.04-4.9-10.94-10.94-10.94S7,6.23,7,12.27s4.9,10.94,10.94,10.94,10.94-4.9,10.94-10.94Z"/>
            <path class="cls-1" d="M23.16,17.92c-.11.13-1.37,1.01-1.53,1.03-.54.05-1.2-.67-2.05-.48-1.03.24-1.31,1.47-2.09,1.49-.26,0-1.41-.2-1.6-.34-.53-.38-.46-1.55-1.42-1.93-.77-.31-1.72.18-2.22-.24-.14-.12-.93-1.25-.95-1.42-.11-.73.7-1.3.37-2.32-.29-.89-1.41-1.06-1.4-1.94,0-.26.21-1.45.33-1.63.2-.28.84-.37,1.19-.58,1.27-.74.6-1.65.81-2.72.06-.3,1.33-1.22,1.63-1.25.43-.06.99.38,1.5.44.61.08.97-.09,1.42-.49.41-.37.53-.97,1.16-.98.24,0,1.57.22,1.72.33.39.28.47,1.54,1.33,1.92.79.36,1.73-.22,2.3.3.18.16.9,1.19.93,1.4.06.44-.41,1.05-.46,1.58-.12,1.49,1.5,1.67,1.48,2.58,0,.3-.19,1.41-.33,1.63-.22.35-.94.43-1.34.71-1.22.88-.3,2.3-.78,2.89ZM19.17,6.09c-.51-.49-1.2.58-1.66.85-.63.37-1.25.5-1.98.42-.34-.04-.99-.37-1.22-.28-.62.25-.29.51-.31.89-.05,1.04-.44,2-1.31,2.59-.21.15-.94.4-1,.58-.21.6.14.56.41.86.67.77,1.06,1.48.96,2.55-.03.31-.37,1.21-.31,1.35.25.62,1.03.31,1.57.38.64.08,1.35.53,1.76,1.02.21.26.61,1.18.67,1.2.72.24.6-.1.95-.42.62-.57,1.49-1.03,2.36-.96.36.03,1.23.38,1.4.36.05,0,.49-.27.5-.3.02-.04-.09-.65-.08-.86.04-.81.4-1.61,1.02-2.14.33-.28,1.25-.61,1.3-.93.09-.52-.64-.92-.93-1.39-.38-.61-.53-1.22-.45-1.94.05-.45.49-1.11.22-1.45s-.87-.15-1.29-.2c-.89-.11-1.65-.56-2.14-1.3-.14-.21-.34-.8-.45-.9Z"/>
            <path class="cls-1" d="M20.94,12.26c0,1.65-1.34,3-3,3s-3-1.34-3-3,1.34-3,3-3,3,1.34,3,3ZM19.62,12.26c0-.93-.75-1.68-1.68-1.68s-1.68.75-1.68,1.68.75,1.68,1.68,1.68,1.68-.75,1.68-1.68Z"/>
          </g>
        </g>
      </g>
    </g>
  </g>
</svg>
