<?xml version="1.0" encoding="UTF-8"?>
<svg id="Capa_2" data-name="Capa 2" xmlns="http://www.w3.org/2000/svg" viewBox="0 0 39.46 39.75">
  <defs>
    <style>
      .cls-1 {
        fill: #11b30b;
      }
    </style>
  </defs>
  <g id="Capa_1-2" data-name="Capa 1">
    <g id="zDpFj6">
      <g>
        <path class="cls-1" d="M35.52,5.47h2.36c.69,0,1.62,1.25,1.55,1.96v22.16c.17.72-.87,2.15-1.55,2.15h-14.19v2.56c.17.24.48.11.73.17,1.34.35,2.36,1.41,2.48,2.83.04.42.05,1.6-.05,1.97-.09.34-.71.38-1,.4-3.99.28-8.31-.22-12.34,0-.53-.09-.88-.05-.95-.65-.22-2.09.27-3.96,2.48-4.54.25-.07.56.07.73-.17v-2.56H1.58c-.68,0-1.73-1.43-1.56-2.15V7.43c-.06-.71.86-1.96,1.56-1.96h2.36v-2.06C3.93,1.58,5.72.13,7.49.16c7.96.37,16.37-.5,24.27,0,1.87.12,3.76,1.14,3.76,3.26v2.06ZM34.12,6.78v-3.76c0-.56-1.03-1.51-1.65-1.45-8.6.05-17.22-.09-25.81.07-.5.03-1.32.96-1.32,1.39v3.76h28.78ZM3.93,6.78H1.78c-.09,0-.45.54-.45.65v19h2.61V6.78ZM38.13,26.43V7.43c0-.11-.36-.65-.45-.65h-2.16v19.65h2.61ZM34.12,8.08H5.34v18.35h28.78V8.08ZM38.13,27.83H1.33v2.61h36.81v-2.61ZM17.07,31.74v2.61h5.32v-2.61h-5.32ZM25.6,38.26c.13-1.13-.23-2.13-1.38-2.48-2.78.16-5.98-.3-8.71-.03-1.3.13-1.8,1.32-1.65,2.51h11.73Z"/>
        <path class="cls-1" d="M19.05,12.12c4.54-.52,7.56,4.35,5.02,8.13-.27.4-.95.96-1.04,1.36-.33,1.38.64,3.89-1.71,4.21-.65.09-2.54.09-3.19,0-.73-.1-1.54-.81-1.66-1.55-.13-.8.16-1.98-.07-2.73-.12-.38-.92-1.13-1.19-1.62-1.74-3.15.21-7.38,3.84-7.79ZM21.68,21.81c-.13-1.11.74-1.51,1.25-2.21,1.46-2,.63-5.1-1.72-5.99-3.25-1.23-6.3,1.78-5.16,5.06.42,1.22,1.74,1.75,1.78,3.14h1.25c-.03-.31.08-.72-.05-1-.21-.47-1.9-1.32-1.05-2.05.66-.57,1.31.46,1.75.85.47-.38.91-1.26,1.63-.93,1.18.55-.76,1.76-.93,2.13-.13.28-.02.69-.05,1h1.3ZM21.68,23.22h-3.91c.01.54-.16,1.1.5,1.25.41.09,2.54.12,2.92,0,.59-.18.52-.76.5-1.26Z"/>
        <path class="cls-1" d="M13.73,16.83c.21.23.15.73-.07.93-.51.5-2.87.35-2.36-.76.26-.57,2.1-.53,2.43-.18Z"/>
        <path class="cls-1" d="M25.82,17.78c-.4-.37-.19-.96.29-1.11.68-.21,2.56-.22,2.04.93-.25.55-1.97.51-2.33.18Z"/>
        <path class="cls-1" d="M13.93,11.11c.2-.06.44-.05.63.03.07.03,1.07,1.02,1.11,1.09.25.44.07,1.04-.46,1.07-.73.04-2.41-1.86-1.28-2.19Z"/>
        <path class="cls-1" d="M23.92,13.17c-.42-.39-.16-.82.12-1.18.35-.44,1.02-1.17,1.61-.81.93.56-1.08,2.61-1.74,1.98Z"/>
        <path class="cls-1" d="M14.94,21.33c.43-.1.79.08.83.54.07.72-1.92,2.47-2.19,1.17-.11-.52.93-1.61,1.36-1.71Z"/>
        <path class="cls-1" d="M19.73,8.73c.81,0,.71,1.35.66,1.92-.09.96-1.22.96-1.32,0-.06-.6-.18-1.91.66-1.92Z"/>
        <path class="cls-1" d="M23.92,21.44c.61-.58,2.13.86,1.96,1.61-.3,1.31-2.14-.59-2.16-1.1,0-.11.13-.44.2-.51Z"/>
        <path class="cls-1" d="M31.98,4.64c-.43.35-3.76,0-4.53.13-.72-.26-.69-1.17.1-1.29.64-.1,3.36-.1,4,0,.59.09.92.77.43,1.17Z"/>
        <circle class="cls-1" cx="9.23" cy="4.13" r="1.33"/>
        <circle class="cls-1" cx="12.52" cy="4.13" r="1.32"/>
        <circle class="cls-1" cx="15.79" cy="4.14" r="1.32"/>
        <path class="cls-1" d="M26.17,3.69c.21.22.16.72-.08.92-.31.26-2.23.31-2.39-.22-.39-1.3,2.13-1.06,2.46-.71Z"/>
      </g>
    </g>
  </g>
</svg>
