<?xml version="1.0" encoding="UTF-8"?>
<svg id="Capa_2" data-name="Capa 2" xmlns="http://www.w3.org/2000/svg" viewBox="0 0 39.87 39.94">
  <defs>
    <style>
      .cls-1 {
        fill: #11b30b;
      }
    </style>
  </defs>
  <g id="Capa_1-2" data-name="Capa 1">
    <g id="_6MTbr6" data-name="6MTbr6">
      <g>
        <path class="cls-1" d="M5.97,26.71c2.52,0,5.02-.45,7.43.51,1.55.61,2.93,1.99,4.56,2.24,2.91.44,4.75-.58,7.01,2.07.33.39-.03.47.75.39,3.37-.38,8.7-2.35,11.86-1.98,2.37.28,3.27,3.16.88,4.16-5.07,1.55-10.13,3.88-15.19,5.37-.47.14-1,.31-1.48.35-1.6.15-6.58.21-8.02-.12-2.48-.57-4.67-2.95-7.39-3.17-.61-.05-.32.02-.43.39-.1.34-.52.72-.87.78-.6.11-3.49.11-4.09,0-.47-.09-.84-.56-.9-1.03.24-3.34-.31-7.09,0-10.38.05-.53.44-.97.98-1.04.69-.1,3.35-.11,4.03,0,.6.1,1.03.89.88,1.46ZM5.15,26.06H.92v10.83h4.23v-10.83ZM16.83,34.25c.1-.1.34-.11.48-.12,2.05-.17,4.39.2,6.43,0,1.27-.12,1.08-1.49.45-2.29-1.79-2.27-4.86-1.05-7.22-1.78-1.23-.38-2.4-1.46-3.62-1.98-2.34-1-4.68-.6-7.15-.56l-.19.09v7.9c.1.17,1.5.36,1.84.46,2.12.64,4.64,2.82,6.63,3.01,2.47.23,5.45-.04,7.93-.13,5.43-1.89,10.87-3.77,16.24-5.79.55-.36.47-1.26.08-1.72-.58-.7-1.69-.63-2.51-.61l-10.69,2.03c.06.99-.44,1.94-1.45,2.17l-7.04.02c-.35-.03-.42-.5-.21-.71Z"/>
        <path class="cls-1" d="M16.49,11.84c.21.07.25.66-.13.78-.27.09-2.4.08-2.65-.02-.34-.14-.18-.76.02-.76.53,0,2.41-.11,2.75,0Z"/>
        <g>
          <path class="cls-1" d="M30.22,21.28s.25.07.35.15c.56.48.76,1.1.28,1.74-.16.21-.64.43-.65.47-.06.24.03.68,0,.98-.1.83-.53,1.61-1.28,2.02-.3.17-1.13.3-1.17.34-.15.13-.07,1.16-.82,1.52-.37.18-2.07.18-2.44,0-.74-.36-.7-1.43-.81-1.53-.03-.02-.56-.07-.74-.13-1-.35-1.58-1.2-1.71-2.23-.04-.3.05-.75,0-.98-.02-.1-.26-.11-.37-.2-.75-.64-.74-1.38,0-2.01.1-.09.34-.1.37-.2.07-.27-.01-.99-.06-1.3-.25-1.42-1.19-1.96-1.94-3.01-3.2-4.46-1.05-10.83,4.19-12.39,6.97-2.08,12.89,5.54,9.22,11.78-.8,1.35-2.19,2.15-2.39,3.85-.02.17-.04,1.05,0,1.12ZM29.38,21.2c-.1-1.3.21-2.35.97-3.39,1.58-2.17,2.72-3.05,2.52-6.11-.64-9.38-15.08-8.52-14.32,1.19.27,3.47,3.11,4.48,3.46,7.09.03.23-.04,1.22.16,1.22h2.07v-6.97h-1.42c-.4,0-1.13-.5-1.37-.83-1.29-1.8.87-4.06,2.73-2.82.32.21.89.94.89,1.32v1.51h1.29v-1.61c0-.33.6-1.03.89-1.22,1.87-1.26,4.01,1.04,2.73,2.82-.24.33-.97.83-1.37.83h-1.42v6.97h2.2ZM24.24,13.4v-1.42c0-.37-.55-.84-.91-.92-1.23-.28-1.95,1.38-.93,2.12.08.06.35.23.42.23h1.42ZM27.18,13.4h1.42c.28,0,.75-.53.85-.81.4-1.15-1.07-2.13-1.94-1.2-.08.08-.33.52-.33.59v1.42ZM25.07,14.23v6.97h1.29v-6.97h-1.29ZM30.19,22.14c-.1-.1-.33-.11-.48-.12-2.04-.18-5.95-.18-7.99,0-.81.07-.78.75-.09.83,2.55.28,5.57-.21,8.18,0,.35,0,.67-.44.39-.72ZM29.38,23.68h-7.34c-.08,1.41.24,2.37,1.79,2.48,1.03.08,2.84.09,3.86,0,1.45-.13,1.81-1.16,1.69-2.48ZM26.9,26.98h-2.39c.05.35.08.78.5.83.23.03,1.39.03,1.55-.02.22-.08.28-.59.34-.81Z"/>
          <path class="cls-1" d="M25.59.02c.8-.23.63,2.12.57,2.59-.05.4-.32.74-.73.47-.24-.16-.23-2.22-.17-2.57.03-.17.16-.45.33-.5Z"/>
          <path class="cls-1" d="M33.85,3.51c.5-.15.74.16.53.62-.05.11-1.55,1.6-1.7,1.69-.44.29-.86-.12-.63-.53.09-.16,1.68-1.75,1.8-1.79Z"/>
          <path class="cls-1" d="M17.14,3.5c.19-.06.38-.02.54.07.11.06,1.45,1.41,1.56,1.56.4.54,0,1.01-.5.69-.14-.09-1.6-1.53-1.66-1.64-.11-.19-.18-.6.06-.68Z"/>
          <path class="cls-1" d="M37.81,12.55c-.16.16-2.25.16-2.59.11-.59-.09-.55-.73-.1-.82.3-.06,2.17-.06,2.47,0,.35.07.43.49.21.71Z"/>
          <path class="cls-1" d="M32.2,18.55c.51-.17.66.32.9.54s1.18,1.06,1.28,1.29c.14.3,0,.65-.35.62-.24-.02-2.08-1.87-2.06-2.12,0-.11.12-.29.23-.32Z"/>
          <path class="cls-1" d="M18.89,18.56c.29-.07.59.05.56.38-.02.22-1.84,2.04-2.06,2.06-.38.04-.5-.36-.31-.67.06-.1,1.44-1.53,1.57-1.64.07-.06.15-.1.25-.13Z"/>
        </g>
      </g>
    </g>
  </g>
</svg>