<?xml version="1.0" encoding="UTF-8"?>
<svg id="Capa_2" data-name="Capa 2" xmlns="http://www.w3.org/2000/svg" viewBox="0 0 42.74 32.65">
  <defs>
    <style>
      .cls-1 {
        fill: #11b30b;
      }
    </style>
  </defs>
  <g id="Capa_1-2" data-name="Capa 1">
    <g id="WHhOcc">
      <g>
        <path class="cls-1" d="M40.53,27.33h1.79c.66,0,.38,1.89.28,2.3-.38,1.57-1.91,2.84-3.51,3.01l-35.18.02c-1.75-.11-3.29-1.24-3.74-2.96-.11-.42-.42-2.37.26-2.37h1.79V1.98C2.22,1.1,3.39,0,4.28,0h34.09c.78.07,1.62.54,1.93,1.28.06.15.23.75.23.87v25.17ZM39.42,27.33V2.16c0-.34-.46-.94-.82-1.01H4.14c-.33.07-.82.61-.82.92v25.26h36.11ZM41.63,28.43H1.11c-.04,1.65,1.07,2.94,2.71,3.12h34.91c1.77-.12,2.88-1.35,2.89-3.12Z"/>
        <g>
          <path class="cls-1" d="M37.96,2.57v23.3s-33.18,0-33.18,0V2.57s33.18,0,33.18,0ZM36.85,3.67H5.89v21.09h30.96V3.67Z"/>
          <path class="cls-1" d="M7.81,8.71h27.11s0,5.51,0,5.51H7.81s0-5.51,0-5.51ZM8.92,9.81v3.3h24.9v-3.3H8.92Z"/>
          <path class="cls-1" d="M8.16,15.33l7.01.03c.19.14.25.32.28.55.11.96.09,3.24,0,4.22-.05.53-.17.64-.69.69-2.01.18-4.3-.15-6.35,0-.41-.03-.55-.42-.59-.78-.1-.91-.09-3.01,0-3.95.02-.24.07-.68.34-.76ZM14.34,16.42h-5.42v3.3h5.42v-3.3Z"/>
          <path class="cls-1" d="M17.9,15.33l7.01.03c.23.17.26.38.28.64.09.96.11,3.2,0,4.13-.04.34-.24.67-.59.69-2-.2-4.5.26-6.44,0-.37-.05-.55-.34-.59-.69-.11-.93-.09-3.17,0-4.13.03-.28.06-.53.34-.67ZM24.08,16.42h-5.42v3.3h5.42v-3.3Z"/>
          <path class="cls-1" d="M27.64,15.33l7.05.08c.2.14.22.45.24.68.08.96.1,3.01,0,3.95-.04.36-.18.76-.59.78-2.04-.15-4.33.18-6.35,0-.45-.04-.63-.13-.69-.6-.11-.96-.09-3.24,0-4.22.03-.28.06-.53.34-.67ZM33.82,16.42h-5.42v3.3h5.42v-3.3Z"/>
          <path class="cls-1" d="M17.9,21.84l6.79-.02c.72.1.62,1.01-.19,1.11-1.93.22-4.28-.17-6.25,0-.63-.05-.95-.72-.35-1.08Z"/>
          <path class="cls-1" d="M8.25,21.85l6.78-.02c.7.32.44,1.02-.27,1.1-1.98-.17-4.32.22-6.25,0-.75-.09-.87-.95-.25-1.08Z"/>
          <path class="cls-1" d="M27.64,21.84l6.69-.02c.78.06.7,1.01-.09,1.1-1.93.22-4.27-.17-6.25,0-.63-.06-1.01-.72-.35-1.08Z"/>
          <path class="cls-1" d="M8.34,5.62c1.42-.32,1.52,1.67.08,1.44-.74-.12-.72-1.3-.08-1.44Z"/>
          <circle class="cls-1" cx="14.61" cy="6.34" r=".79"/>
          <path class="cls-1" d="M11.28,5.62c1.32-.39,1.52,1.41.41,1.49-.99.07-1.07-1.29-.41-1.49Z"/>
        </g>
      </g>
    </g>
  </g>
</svg>
