<svg xmlns="http://www.w3.org/2000/svg" viewBox="0 0 320 320" role="img" aria-labelledby="title desc">
  <title id="title">Copa Osoria 2026</title>
  <desc id="desc">Logo de Copa Osoria 2026 con escudo, balon y copa.</desc>
  <defs>
    <linearGradient id="shield" x1="58" x2="262" y1="32" y2="290" gradientUnits="userSpaceOnUse">
      <stop offset="0" stop-color="#13795b"/>
      <stop offset="0.52" stop-color="#0f4c81"/>
      <stop offset="1" stop-color="#111827"/>
    </linearGradient>
    <linearGradient id="gold" x1="102" x2="218" y1="66" y2="202" gradientUnits="userSpaceOnUse">
      <stop offset="0" stop-color="#ffe68a"/>
      <stop offset="0.55" stop-color="#f4b63f"/>
      <stop offset="1" stop-color="#c98218"/>
    </linearGradient>
  </defs>
  <path fill="url(#shield)" d="M160 26 266 70v79c0 68-42 119-106 145C96 268 54 217 54 149V70l106-44Z"/>
  <path fill="none" stroke="#f8fafc" stroke-width="8" d="M160 40 252 78v70c0 58-34 101-92 126C102 249 68 206 68 148V78l92-38Z"/>
  <path fill="url(#gold)" d="M112 80h96v26c0 25-16 46-38 52v24h28v18h-76v-18h28v-24c-22-6-38-27-38-52V80Z"/>
  <path fill="none" stroke="#f4b63f" stroke-width="14" d="M112 100H88c0 27 16 43 42 47M208 100h24c0 27-16 43-42 47"/>
  <circle cx="160" cy="119" r="31" fill="#f8fafc"/>
  <path fill="#111827" d="m160 92 13 10-5 16h-16l-5-16 13-10ZM132 116l14 5 1 15-13 8-12-11 10-17ZM188 116l10 17-12 11-13-8 1-15 14-5ZM147 146h26l8 13-10 12h-22l-10-12 8-13Z"/>
  <text x="160" y="232" fill="#f8fafc" font-family="Arial, Helvetica, sans-serif" font-size="32" font-weight="800" text-anchor="middle">COPA OSORIA</text>
  <text x="160" y="260" fill="#f4b63f" font-family="Arial, Helvetica, sans-serif" font-size="24" font-weight="800" text-anchor="middle">2026</text>
</svg>
